<svg width="23" height="24" viewBox="0 0 23 24" fill="none" xmlns="http://www.w3.org/2000/svg">
<path fill-rule="evenodd" clip-rule="evenodd" d="M6.8242 0.072C8.03774 0.0130909 8.42467 0 11.516 0C14.6072 0 14.9942 0.0141818 16.2067 0.072C17.4192 0.129818 18.2468 0.333818 18.971 0.629455C19.7294 0.931636 20.4173 1.404 20.9864 2.01491C21.5657 2.61382 22.0126 3.33818 22.2982 4.13891C22.5796 4.90255 22.772 5.77527 22.8279 7.05164C22.8837 8.33346 22.8962 8.74146 22.8962 12C22.8962 15.2596 22.8827 15.6676 22.8279 16.9473C22.773 18.2236 22.5796 19.0964 22.2982 19.86C22.0126 20.6608 21.565 21.3864 20.9864 21.9862C20.4173 22.5971 19.7294 23.0684 18.971 23.3695C18.2468 23.6662 17.4192 23.8691 16.2087 23.928C14.9942 23.9869 14.6072 24 11.516 24C8.42467 24 8.03774 23.9858 6.8242 23.928C5.61376 23.8702 4.78611 23.6662 4.06191 23.3695C3.30246 23.0683 2.61437 22.5963 2.04555 21.9862C1.46659 21.3869 1.01855 20.6617 0.732686 19.8611C0.452319 19.0975 0.25989 18.2247 0.204023 16.9484C0.148157 15.6665 0.135742 15.2585 0.135742 12C0.135742 8.74036 0.149192 8.33236 0.204023 7.05382C0.258855 5.77527 0.452319 4.90255 0.732686 4.13891C1.01897 3.33827 1.46735 2.61307 2.04658 2.01382C2.6146 1.40346 3.302 0.931029 4.06088 0.629455C4.78507 0.333818 5.61273 0.130909 6.82317 0.072H6.8242ZM16.1146 2.232C14.9145 2.17418 14.5545 2.16218 11.516 2.16218C8.47744 2.16218 8.11741 2.17418 6.91731 2.232C5.80722 2.28545 5.20511 2.48073 4.8037 2.64545C4.27297 2.86364 3.89328 3.12218 3.49497 3.54218C3.1174 3.92951 2.82683 4.40104 2.64456 4.92218C2.48834 5.34545 2.30315 5.98036 2.25246 7.15091C2.19763 8.41636 2.18625 8.796 2.18625 12C2.18625 15.204 2.19763 15.5836 2.25246 16.8491C2.30315 18.0196 2.48834 18.6545 2.64456 19.0778C2.82664 19.5982 3.11736 20.0705 3.49497 20.4578C3.86224 20.856 4.31021 21.1625 4.8037 21.3545C5.20511 21.5193 5.80722 21.7145 6.91731 21.768C8.11741 21.8258 8.4764 21.8378 11.516 21.8378C14.5555 21.8378 14.9145 21.8258 16.1146 21.768C17.2247 21.7145 17.8268 21.5193 18.2282 21.3545C18.7589 21.1364 19.1386 20.8778 19.5369 20.4578C19.9145 20.0705 20.2053 19.5982 20.3873 19.0778C20.5436 18.6545 20.7287 18.0196 20.7794 16.8491C20.8343 15.5836 20.8457 15.204 20.8457 12C20.8457 8.796 20.8343 8.41636 20.7794 7.15091C20.7287 5.98036 20.5436 5.34545 20.3873 4.92218C20.1804 4.36255 19.9352 3.96218 19.5369 3.54218C19.1696 3.14408 18.7224 2.83768 18.2282 2.64545C17.8268 2.48073 17.2247 2.28545 16.1146 2.232ZM10.0624 15.6993C10.8742 16.0556 11.7781 16.1037 12.6198 15.8353C13.4614 15.567 14.1886 14.9988 14.6772 14.2279C15.1657 13.457 15.3853 12.5311 15.2984 11.6085C15.2115 10.6858 14.8235 9.82361 14.2006 9.16909C13.8036 8.7507 13.3236 8.43034 12.795 8.23107C12.2665 8.0318 11.7026 7.95858 11.144 8.01667C10.5854 8.07477 10.046 8.26274 9.56456 8.56705C9.08313 8.87136 8.67167 9.28445 8.35981 9.77657C8.04795 10.2687 7.84344 10.8276 7.76102 11.413C7.67859 11.9985 7.72029 12.596 7.88312 13.1624C8.04595 13.7288 8.32585 14.2501 8.70268 14.6888C9.07951 15.1275 9.54389 15.4726 10.0624 15.6993ZM7.37976 7.63855C7.92293 7.06579 8.56777 6.61146 9.27746 6.30149C9.98715 5.99151 10.7478 5.83197 11.516 5.83197C12.2841 5.83197 13.0448 5.99151 13.7544 6.30149C14.4641 6.61146 15.109 7.06579 15.6521 7.63855C16.1953 8.2113 16.6262 8.89126 16.9201 9.6396C17.2141 10.3879 17.3654 11.19 17.3654 12C17.3654 12.81 17.2141 13.6121 16.9201 14.3604C16.6262 15.1087 16.1953 15.7887 15.6521 16.3615C14.5552 17.5182 13.0673 18.168 11.516 18.168C9.96458 18.168 8.47675 17.5182 7.37976 16.3615C6.28278 15.2047 5.6665 13.6359 5.6665 12C5.6665 10.3641 6.28278 8.79528 7.37976 7.63855ZM18.6627 6.75055C18.7973 6.61666 18.9051 6.45565 18.9796 6.27706C19.0541 6.09847 19.0939 5.90593 19.0966 5.71083C19.0993 5.51574 19.0649 5.32205 18.9953 5.14125C18.9258 4.96044 18.8225 4.79619 18.6916 4.65822C18.5608 4.52026 18.405 4.41137 18.2336 4.33802C18.0621 4.26467 17.8784 4.22834 17.6934 4.23118C17.5084 4.23403 17.3258 4.27599 17.1564 4.35458C16.9871 4.43317 16.8344 4.54679 16.7074 4.68873C16.4605 4.96476 16.3253 5.33141 16.3305 5.71083C16.3358 6.09026 16.481 6.4526 16.7355 6.72092C16.99 6.98924 17.3336 7.14243 17.6934 7.14796C18.0532 7.15349 18.4009 7.01093 18.6627 6.75055Z" fill="white"/>
</svg>
