<svg width="34" height="24" viewBox="0 0 34 24" fill="none" xmlns="http://www.w3.org/2000/svg">
<path d="M33.2181 4.02593C33.026 3.31608 32.6519 2.67342 32.1354 2.16626C31.6043 1.64351 30.9534 1.26958 30.2441 1.07975C27.5896 0.354917 16.9544 0.354918 16.9544 0.354918C12.5207 0.30266 8.08811 0.532501 3.68163 1.04314C2.97232 1.24699 2.32264 1.62928 1.79036 2.15601C1.26737 2.67731 0.888551 3.32014 0.69066 4.02447C0.21529 6.67742 -0.0156768 9.37115 0.000872389 12.0694C-0.0160896 14.7652 0.214311 17.458 0.69066 20.1143C0.88431 20.8157 1.26171 21.4556 1.78612 21.9725C2.31053 22.4894 2.96357 22.8628 3.68163 23.0604C6.37152 23.7838 16.9544 23.7838 16.9544 23.7838C21.3937 23.8361 25.832 23.6063 30.2441 23.0956C30.9534 22.9058 31.6043 22.5318 32.1354 22.0091C32.6517 21.502 33.0254 20.8593 33.2167 20.1494C33.7045 17.4975 33.9417 14.8026 33.9249 12.103C33.9616 9.39203 33.7247 6.68447 33.2181 4.02447V4.02593ZM13.5733 17.0831V7.05705L22.4218 12.0708L13.5733 17.0831Z" fill="white"/>
</svg>
