<svg width="38" height="30" viewBox="0 0 38 30" fill="none" xmlns="http://www.w3.org/2000/svg">
<rect x="14.0518" width="24" height="24" rx="2" transform="rotate(14.6053 14.0518 0)" fill="#585757"/>
<rect x="8.05176" width="24" height="24" rx="2" transform="rotate(14.6053 8.05176 0)" fill="#383838"/>
<rect y="5" width="24" height="24" rx="2" fill="url(#paint0_linear_1139_480)"/>
<path d="M16.5451 17.774L9.38706 21.8757C8.77959 22.2234 8 21.8023 8 21.1013V12.898C8 12.1981 8.77846 11.776 9.38706 12.1248L16.5451 16.2265C16.6833 16.3044 16.7981 16.417 16.878 16.5529C16.9579 16.6888 17 16.8431 17 17.0002C17 17.1574 16.9579 17.3117 16.878 17.4476C16.7981 17.5835 16.6833 17.6961 16.5451 17.774Z" fill="url(#paint1_linear_1139_480)" fill-opacity="0.2"/>
<path d="M16.5451 17.774L9.38706 21.8757C8.77959 22.2234 8 21.8023 8 21.1013V12.898C8 12.1981 8.77846 11.776 9.38706 12.1248L16.5451 16.2265C16.6833 16.3044 16.7981 16.417 16.878 16.5529C16.9579 16.6888 17 16.8431 17 17.0002C17 17.1574 16.9579 17.3117 16.878 17.4476C16.7981 17.5835 16.6833 17.6961 16.5451 17.774Z" fill="url(#paint2_linear_1139_480)"/>
<defs>
<linearGradient id="paint0_linear_1139_480" x1="12" y1="5" x2="12" y2="29" gradientUnits="userSpaceOnUse">
<stop offset="0.260417" stop-color="#1B1919"/>
<stop offset="1" stop-color="#373737"/>
</linearGradient>
<linearGradient id="paint1_linear_1139_480" x1="12.5" y1="12" x2="12.5" y2="22" gradientUnits="userSpaceOnUse">
<stop stop-color="#282828"/>
<stop offset="1" stop-color="#737373" stop-opacity="0"/>
</linearGradient>
<linearGradient id="paint2_linear_1139_480" x1="12.5" y1="12" x2="12.5" y2="22" gradientUnits="userSpaceOnUse">
<stop stop-color="#F89A67"/>
<stop offset="1" stop-color="#F55700"/>
</linearGradient>
</defs>
</svg>
